<?xml version="1.0" encoding="utf-8"?>
<!-- Generator: Adobe Illustrator 21.1.0, SVG Export Plug-In . SVG Version: 6.00 Build 0)  -->
<svg version="1.1" xmlns="http://www.w3.org/2000/svg" xmlns:xlink="http://www.w3.org/1999/xlink" x="0px" y="0px"
	 width="386.6343079px" height="108.3019638px" viewBox="0 0 386.6343079 108.3019638"
	 enable-background="new 0 0 386.6343079 108.3019638" xml:space="preserve">
<g id="Слой_1">
</g>
<g id="Слой_5">
</g>
<g id="Слой_4">
</g>
<g id="Cover">
</g>
<g id="Wordmark">
	<g>
		<polygon fill="#2586EA" points="239.5857849,23.4006786 244.4012299,23.4006786 255.8586731,23.4006786 255.8586731,18.4191723
			233.7740173,18.4191723 233.7740173,23.4006786 		"/>
		<path fill="#F9630E" d="M53.3360558,45.2632141c0.749157,0.0098724,1.4993324,0.0153656,2.2508278,0.0153656
			c0.7454453,0,1.4897194-0.0048828,2.2329254-0.0142441c2.6651154-0.0337791,5.3148155-0.1310501,7.9493332-0.2850952v-5.822731
			c-0.2797546,0.0167847-0.5598068,0.0324554-0.83992,0.0479202c-0.3791809,0.0208588-0.7584152,0.0415115-1.1382332,0.0598259
			c-0.3260193,0.0157738-0.6525726,0.0295067-0.9791031,0.0434456c-0.3487625,0.0148582-0.6974182,0.030117-1.0467415,0.0427361
			c-0.3693123,0.0135307-0.7393646,0.0241127-1.1092873,0.035202c-0.3116722,0.0092583-0.6230164,0.0197411-0.9351234,0.0272675
			c-0.4361343,0.010685-0.8731346,0.0176048-1.3100853,0.024929c-0.1969795,0.0032578-0.3938332,0.007122-0.5908394,0.0103798
			c-0.0530624,0.0008125-0.1059685,0.0021362-0.1590805,0.0027466c-0.6902962,0.0084457-1.3815117,0.0131226-2.0738449,0.0131226
			c-0.7516479,0-1.5015945-0.0072212-2.2508278-0.017498c-0.1026382-0.0014267-0.2054253-0.0022392-0.3080368-0.0037651
			c-0.2567062-0.0038681-0.5129547-0.0095634-0.7693825-0.0145493c-0.3288689-0.0064087-0.6583214-0.010479-0.9867096-0.0188217
			c-0.2893639-0.007328-0.577713-0.0186195-0.8666725-0.0273705c-0.2655334-0.0081406-0.5310898-0.015976-0.7963181-0.0252342
			c-0.7340469-0.0258446-1.4669266-0.0561638-2.1985321-0.0913696c-0.1153793-0.0055962-0.2310638-0.0095634-0.346344-0.0153618
			c-0.5354919-0.0268631-1.0697098-0.058506-1.603878-0.0904541v5.8240585v6.309082h-0.0113945v5.8116417h0.0113945v12.2791405
			c1.9286003-0.1149673,3.8660545-0.1970825,5.8117447-0.2460175v-12.033123h12.58881v-5.8116417h-12.58881v-6.0678406
			C51.9589691,45.241745,52.6470795,45.254261,53.3360558,45.2632141z"/>
		<path fill="#F9630E" d="M91.9432373,42.8215103c-0.1346893-0.4308968-0.2777481-0.8581276-0.4272079-1.2823105
			c-0.0247803-0.0703049-0.0486374-0.1410179-0.073822-0.2112236c-0.6496964-1.8094559-1.433754-3.5546074-2.3381805-5.2252808
			c-0.0041199,0.0009155-0.0081863,0.0018311-0.0123062,0.0026474l-1.059433,1.8502541l-2.7360611,4.778614l-3.2166519,5.6180191
			l-2.6907806-4.6994553l-3.1246796-5.4573631c-0.4663849,0.0574875-0.9334183,0.1129379-1.4009933,0.1665611
			c-0.4901657,0.0561638-0.9809875,0.1103935-1.4724274,0.162487c-0.0597992,0.0063095-0.1194687,0.0130234-0.1792984,0.0193329
			c-0.5347519,0.0560608-1.070549,0.1085625-1.6068039,0.1596375c-0.1474075,0.0140419-0.2947083,0.028389-0.4422379,0.0421257
			c-0.2380905,0.0219765-0.4766312,0.0424271-0.7149734,0.063385c-0.0648346,0.0056992-0.1296768,0.0113983-0.1944885,0.0171967
			c-0.1029129,0.0092583-0.2058334,0.0186195-0.3088989,0.0273705l0.3088989,0.5395584l0.6514816,1.1378288l2.215477,3.8694115
			l3.735405,6.5240707l1.875824,3.2761269l-1.8790283,3.281723l-5.9727783,10.431736l-0.6263809,1.0939789L69.862648,69.689537
			c0.1302872,0.0109863,0.2602158,0.023201,0.3902435,0.0351028c0.046196,0.0042725,0.0924149,0.0084457,0.1386566,0.0125122
			c1.4781418,0.1304398,2.9506149,0.2804184,4.4173355,0.4496155c0.4580154,0.0528107,0.9157486,0.106636,1.3727112,0.1629028
			l5.8979797-10.3009949l7.0074158,12.2387466c1.1540527-2.1270065,2.1119461-4.3758011,2.8475723-6.7230835l-6.5065231-11.3638344
			L91.9432373,42.8215103z"/>
		<path fill="#F9630E" d="M100.0668793,79.7677078c-0.3292694-0.0934067-0.6578369-0.1883316-0.9878769-0.2798004
			c-0.6697693-0.185585-1.3406601-0.3685303-2.0138855-0.5456696c-0.6958466,1.1620483-1.4401703,2.2916336-2.2281952,3.3875427
			c-5.9960556,8.3390198-14.5836945,14.6873703-24.5840302,17.8689804c-1.4651184,0.466095-2.9616547,0.8611755-4.4837494,1.1875763
			c-2.5789146,0.553093-5.2327347,0.9043274-7.9464836,1.0277405c-0.631897,0.0287933-1.2665901,0.0468063-1.9045906,0.0510788
			c-0.1089172,0.0007095-0.2172279,0.0041733-0.3263512,0.0041733c-1.4780655,0-2.9403648-0.0672531-4.384449-0.1976929
			c-1.4691124-0.1326828-2.9194031-0.3306808-4.3478203-0.5914536c-0.4703712-0.0858765-0.9378433-0.1798859-1.4033356-0.2792892
			c-1.5228348-0.3251877-3.0178413-0.7246399-4.4837532-1.189621C29.6307068,96.6136246,20.1017132,88.9463348,14.1048908,78.919548
			c-0.4170065-0.6972656-0.8165131-1.4061279-1.1987743-2.1255798c-0.3426809-0.6449661-0.6717281-1.2981796-0.9856157-1.960144
			c2.0598526-0.5548172,4.1341543-1.0746384,6.2245817-1.5522385L8.1730852,63.41922l-3.4512324-3.4132805l-1.7532406,6.8928032
			L0.0117647,78.5235519c2.0617857-0.7256546,4.14326-1.4093857,6.2412672-2.055275
			c0.3309808,0.7307434,0.6790547,1.4520264,1.0410676,2.165062c0.3290472,0.6482239,0.672441,1.2876968,1.0265183,1.9205627
			c6.9506922,12.4220963,18.6565971,21.8165283,32.651741,25.7331467c1.4703865,0.4114609,2.9656487,0.7626953,4.4837532,1.0502243
			c0.8611832,0.1632004,1.7277031,0.311142,2.6028214,0.4330368c1.7884216,0.24897,3.6046677,0.4110489,5.4445953,0.4808502
			c0.3194847,0.0121078,0.6396294,0.0217743,0.9602547,0.0294037c0.3750114,0.0088501,0.7507858,0.0145493,1.1279335,0.0145493
			c1.992878,0,3.95961-0.1110001,5.8967056-0.3208008c1.4451256-0.1565933,2.8720436-0.3732071,4.2807198-0.6413116
			c1.5178223-0.2887573,3.0137482-0.6391678,4.4837494-1.0518494c10.3327637-2.9007874,19.4145355-8.7901611,26.2533569-16.6784515
			c0.5048904-0.5823898,0.9946442-1.1780167,1.4747086-1.7816772c1.3300552-1.6726074,2.5629883-3.4252853,3.690773-5.250412
			c0.4047928-0.6551437,0.799263-1.3173065,1.1764908-1.9905624
			C101.9250717,80.299942,100.9970474,80.0313339,100.0668793,79.7677078z"/>
		<path fill="#F9630E" d="M40.7247086,38.8077202c-0.5196686-0.045887-1.0392342-0.0920792-1.5575829-0.1425438
			c-0.170475-0.0165863-0.3414078-0.0315437-0.5117836-0.0487366c-0.7840538-0.0788536-1.5661278-0.1644249-2.3469276-0.2540627
			c-0.0492439-0.0055962-0.0987434-0.0102768-0.1479912-0.0159721c-0.1982536-0.022995-0.3957939-0.0481262-0.593792-0.0717316
			c-0.64217-0.0766144-1.2832718-0.1565895-1.9232063-0.2404251c-0.2570114-0.03368-0.5137672-0.0679665-0.7704239-0.1028671
			c-0.6354561-0.0862808-1.2697411-0.1765289-1.9029579-0.2699318c-0.1999817-0.0295067-0.4004726-0.0575905-0.6002007-0.0878067
			c-0.8238907-0.1246414-1.6459503-0.2547722-2.4658203-0.3914185c-0.1460571-0.0243187-0.2914524-0.0505676-0.4373569-0.0752945
			c-0.6771202-0.114666-1.352869-0.2333031-2.0271912-0.3561096c-0.2464294-0.0448723-0.4924526-0.0907593-0.7384243-0.1366463
			c-0.6131229-0.1144638-1.2249222-0.2324905-1.8356552-0.3536682c-0.2158546-0.0428352-0.4320641-0.0846558-0.6476135-0.1283035
			c-0.0170441-0.0034599-0.0339336-0.007225-0.0509243-0.010685c-0.9386101,1.7358932-1.74617,3.5527763-2.4092999,5.4379311
			c2.2172527,0.46661,4.4493618,0.8930283,6.6969872,1.2741699v28.7744446
			c1.9262104-0.3378983,3.8634586-0.6436462,5.8117447-0.9152069V43.7169762
			c0.9301643,0.1253548,1.8632278,0.2417488,2.7980232,0.3521461c1.4486618,0.1712379,2.9028702,0.3242645,4.3622665,0.4594841
			c0.5146332,0.0476189,1.0299263,0.0929985,1.5457802,0.1363411V38.83041
			C40.889843,38.8226776,40.8073273,38.8150482,40.7247086,38.8077202z"/>
		<path fill="#2586EA" d="M45.4561119,73.9035645c-1.0766258,0.0657272-2.1512718,0.1387787-3.2221489,0.2254639
			c0.9160194,2.4225845,1.995903,4.7643738,3.2221489,7.0149002c2.1666374,3.9764404,4.7950478,7.6648483,7.8185387,10.9887924
			c0.020401,0.0012207,0.0410042,0.0016327,0.0614052,0.0028534V73.6080933
			C50.6935005,73.6431961,48.0668983,73.7440262,45.4561119,73.9035645z"/>
		<path fill="#2586EA" d="M73.7464523,74.6027603c-0.1044388-0.0115967-0.2092896-0.0218735-0.3137817-0.033371
			c-0.198204,0.5563507-0.4027634,1.1095428-0.6165619,1.6582565c-0.7585907,1.9468155-1.6159821,3.8440781-2.5632172,5.6877213
			c-1.3220367,2.5730591-2.8217773,5.0395889-4.4837494,7.383316c-0.4560318,0.6430359-0.9229965,1.277832-1.4030838,1.9020462
			c0.4714203-0.1107025,0.9386139-0.2321854,1.4030838-0.3601837c1.5357056-0.4233627,3.032547-0.9401321,4.4837494-1.5447083
			c6.4926834-2.7051315,12.0749893-7.1572418,16.158783-12.7705841
			C82.2437897,75.7247162,78.0207596,75.0792389,73.7464523,74.6027603z"/>
		<path fill="#2586EA" d="M67.3820496,74.0218887c-0.5365829-0.0386581-1.0748978-0.0711136-1.6129074-0.1045914
			c-2.6337547-0.1641159-5.283226-0.2700348-7.9493332-0.307785v17.1131134v1.4206772
			c0.0206528-0.0011139,0.0415115-0.0015259,0.0621414-0.0027466c3.0551605-3.3563995,5.706768-7.0851974,7.8871918-11.1068192
			c1.1999969-2.2132874,2.2593231-4.5140762,3.1598816-6.8932114
			C68.4139862,74.0988159,67.8983612,74.0591354,67.3820496,74.0218887z"/>
		<path fill="#2586EA" d="M45.4561119,89.3834381c-1.6611061-2.3349762-3.1605911-4.79245-4.4837532-7.3560486
			c-1.239521-2.4015198-2.3252563-4.8953171-3.2414818-7.4695969c-2.9626465,0.3226318-5.9020443,0.722908-8.814785,1.2023315
			c-1.3641624,0.224556-2.7216606,0.4688492-4.0739708,0.7275848c4.0744801,5.6144638,9.6468658,10.069931,16.1302376,12.7828903
			c0.8488197,0.3552017,1.7125435,0.6819077,2.5913239,0.9759521c0.6236038,0.2086792,1.255043,0.4000702,1.8924294,0.5772095
			c0.4358826,0.1210785,0.874054,0.2366562,1.3161926,0.3422699C46.3227386,90.5803833,45.8845177,89.985672,45.4561119,89.3834381z
			"/>
		<path fill="#2586EA" d="M45.4561119,17.5349216c-1.535656,0.4259109-3.0328522,0.9443073-4.4837532,1.5515289
			c-6.5427399,2.7380943-12.1573009,7.2520657-16.241497,12.9394779c4.2561474,0.8175316,8.5711021,1.4691124,12.9382553,1.9480324
			c0.9292488-2.6363468,2.0354843-5.1890583,3.3032417-7.644907c1.3229561-2.5627842,2.8230515-5.0190411,4.4837532-7.3533039
			c0.4285049-0.6023369,0.8665733-1.1972466,1.3161926-1.7828979
			C46.3302155,17.2984638,45.8920441,17.4140472,45.4561119,17.5349216z"/>
		<path fill="#2586EA" d="M53.2746506,16.22616c-3.0228806,3.3232365-5.6519012,7.0101128-7.8185387,10.9855423
			c-1.2569733,2.3063831-2.3592911,4.7092228-3.2899628,7.196104c1.0932617,0.0893326,2.1905975,0.1641159,3.2899628,0.231472
			c2.6107864,0.1599464,5.2373886,0.2612839,7.8799438,0.2972031V16.2233124
			C53.3156548,16.2245331,53.2950516,16.2249393,53.2746506,16.22616z"/>
		<path fill="#2586EA" d="M65.7691422,27.3087673c-2.177372-4.015007-4.8251648-7.7375965-7.8743477-11.0897293
			c-0.0249023-0.0014248-0.0500603-0.0019321-0.0749855-0.0033569v1.4624996v17.2596207
			c2.6660805-0.0362206,5.3157806-0.1396942,7.9493332-0.3027954c0.5659103-0.0349998,1.1320267-0.0693893,1.6963348-0.1102943
			c0.5139999-0.0372391,1.0272598-0.0772247,1.5399094-0.1193466
			C68.0882416,31.9540939,67.0035248,29.5849342,65.7691422,27.3087673z"/>
		<path fill="#2586EA" d="M70.2528915,19.0633545c-0.707489-0.2947598-1.4255142-0.5694733-2.1539154-0.821907
			c-0.7655411-0.2652512-1.5431366-0.5043545-2.329834-0.7216854c-0.4605331-0.1270809-0.9233475-0.2487698-1.3908005-0.3586559
			c0.4757462,0.6190243,0.9387436,1.2483253,1.3908005,1.8858681c1.6619492,2.3438263,3.1618652,4.8104591,4.4837494,7.3837242
			c0.9737167,1.8955326,1.8518372,3.8480434,2.6261215,5.8524437c0.2159576,0.5590973,0.4238281,1.1220589,0.6235809,1.6889877
			c0.1077728-0.0119057,0.2158813-0.0225868,0.3235779-0.0346947c2.9878006-0.3342361,5.9517746-0.7475319,8.888649-1.2407951
			c1.2793121-0.2148895,2.5534744-0.4449387,3.8228607-0.6883163
			C82.4430618,26.3127747,76.8129807,21.7962589,70.2528915,19.0633545z"/>
		<path fill="#F9630E" d="M106.7480469,31.4894199c-0.074173,0.0238075-0.1485977,0.0471077-0.222847,0.0708141
			c-0.5023727,0.160862-1.0054779,0.3200951-1.5100403,0.4759712c-0.001091,0.0003052-0.0022125,0.0006104-0.0033112,0.0010147
			c-0.2574692-0.574255-0.5273438-1.1416931-0.8043518-1.7048588c-0.396553-0.8064404-0.8103104-1.602808-1.244812-2.3863564
			c-0.4053345-0.7308426-0.8274536-1.4511051-1.2651367-2.1607857c-1.1265411-1.8265476-2.3594208-3.5803471-3.6884308-5.2544804
			C91.024971,11.7329445,81.3613434,5.1616635,70.2528915,2.0423272c-1.4703827-0.4128861-2.9655457-0.766149-4.4837494-1.0550067
			c-2.5315514-0.4817684-5.1244011-0.7905683-7.7677689-0.9063555c-0.7990112-0.0350007-1.6019936-0.0547395-2.4096565-0.0547395
			c-0.392231,0-0.7828331,0.0069187-1.1730042,0.0154654c-1.4967155,0.0325588-2.978775,0.1244357-4.4434128,0.2754271
			c-0.6564407,0.0676613-1.3082275,0.1506862-1.9574699,0.2416474c-0.8607216,0.1205693-1.7144241,0.2628105-2.561718,0.4233661
			c-1.5177994,0.2874332-3.0136223,0.6368298-4.4837532,1.0480881c-9.9670601,2.787847-18.7730961,8.3542824-25.5269623,15.8161469
			c-2.7766542,3.0677509-5.2029972,6.4572239-7.2238808,10.1027927c1.4370127,0.4365921,2.8820639,0.8547688,4.3356619,1.2523937
			c0.4784613,0.130846,0.9581947,0.2587414,1.4384375,0.385313c5.9895983-10.1178493,15.5654459-17.859314,26.9767418-21.4789371
			c1.4656563-0.4648781,2.9612732-0.8620958,4.4837532-1.1871748c1.8652649-0.3983364,3.7698517-0.6906533,5.7080917-0.8667765
			c1.451767-0.1318631,2.921669-0.2011523,4.4076996-0.2017627c0.0066147,0,0.0132027-0.0002036,0.0198135-0.0002036
			c0.7315559,0,1.458889,0.0178056,2.182457,0.0500593c2.3585815,0.1053076,4.6733093,0.3786993,6.9321022,0.8100019
			c0.3558273,0.0679665,0.7098541,0.1408167,1.0628662,0.216516c1.522583,0.3267074,3.0182495,0.7253489,4.4837494,1.1918554
			c10.0142517,3.1876078,18.6104584,9.5522432,24.6076889,17.9093742c0.8245468,1.1490211,1.6029053,2.3334484,2.3260956,3.5548115
			c0.401619,0.6783409,0.7823029,1.3701134,1.1506195,2.069416c0.0505676,0.0959473,0.1035843,0.1904697,0.1535873,0.2868233
			c0.2973557,0.5729332,0.586235,1.1510544,0.8610535,1.737114c0.0546646-0.0147552,0.1090469-0.03022,0.1636581-0.0450745
			c-0.0546341,0.0148544-0.1089935,0.0303192-0.1636353,0.0450745c-0.0081863,0.0022354-0.0164261,0.0042725-0.0245972,0.0065117
			c-0.5425339,0.1466141-1.0867233,0.2892647-1.631424,0.4305878c-0.2993317,0.0776329-0.5992813,0.1536369-0.8992844,0.229641
			c-0.0389404,0.0099716-0.0780106,0.0195351-0.1169815,0.0294075c-0.154068,0.0388641-0.3082657,0.0774269-0.4625092,0.1158867
			c-0.9147034,0.2283211-1.8314362,0.4514503-2.752037,0.664608l1.8309784,1.8108788l3.025856,2.9925613l4.6115189,4.5608749
			l4.027092,3.9827576l1.5125885-5.9466629l1.5286865-6.0100479l1.7137604-6.7376366
			C110.0714417,30.3931046,108.4155197,30.954031,106.7480469,31.4894199z"/>
		<rect x="126.9209824" y="0.0738088" fill="#2586EA" width="1.9378996" height="108.1950531"/>
		<polygon fill="#2586EA" points="196.0382843,48.4742622 184.0826721,18.4191723 178.1048584,18.4191723 166.1492462,48.4742622
			171.9609985,48.4742622 180.9277191,24.8951321 185.4110718,36.6846962 179.4332581,36.6846962 177.7727661,41.6662025
			187.2376251,41.6662025 189.8944244,48.4742622 		"/>
		<polygon fill="#2586EA" points="239.5857849,43.4927559 239.5857849,35.8544464 253.9898071,35.8544464 253.9898071,30.8729401
			244.5672913,30.8729401 239.5857849,30.8729401 233.7740173,30.8729401 233.7740173,48.4742622 256.356842,48.4742622
			256.356842,43.4927559 		"/>
		<path fill="#2586EA" d="M170.4698029,18.4191723v5.1475563H161.17099v25.0735836h-5.8117523V23.5667286h-9.2988129v-5.1475544
			L170.4698029,18.4191723z"/>
		<path fill="#2586EA" d="M208.0362244,18.4191723l6.9741058,9.9630146l6.9741211-9.9630127h6.8080597l-10.1290741,14.4463692
			l10.9593353,15.7747726h-6.9741058l-7.8043671-10.7932663l-7.6383057,10.7932663h-6.808075l10.7932587-15.4426689
			l-10.1290588-14.612421h6.9741058V18.4191723L208.0362244,18.4191723z"/>
		<path fill="#2586EA" d="M273.2939453,23.4006786c-2.6567993,0-4.4833374,0.9963017-4.4833374,2.8228531
			c0,6.143858,16.1068726,2.822855,16.1068726,13.6161175c0,5.6457062-4.9815063,8.9667091-11.4574585,8.9667091
			c-4.8154602,0-9.4648743-1.9926033-12.7858582-4.8154564l2.4907532-4.8154526
			c3.1549377,2.8228531,7.1401367,4.4833565,10.4611511,4.4833565c3.1549377,0,5.147583-1.1623535,5.147583-3.3210068
			c0-6.309906-16.1068726-2.6568031-16.1068726-13.4500675c0-5.3136063,4.4833374-8.6346111,11.2914124-8.6346111
			c3.985199,0,7.9704285,1.3284035,10.9593201,3.1549549l-2.3246765,4.9815063
			C279.1057129,24.3969803,275.6186829,23.4006786,273.2939453,23.4006786z"/>
		<polygon fill="#2586EA" points="303.6355896,23.4006786 308.6170959,23.4006786 320.0745544,23.4006786 320.0745544,18.4191723
			297.9898682,18.4191723 297.9898682,23.4006786 		"/>
		<polygon fill="#2586EA" points="303.6355896,43.4927559 303.6355896,43.4927559 303.6355896,35.8544464 318.205658,35.8544464
			318.205658,30.8729401 308.7831116,30.8729401 303.6355896,30.8729401 297.9898682,30.8729401 297.9898682,48.4742622
			303.6355896,48.4742622 		"/>
		<path fill="#2586EA" d="M356.693512,33.5297394c0,8.634613-6.9741211,15.2766228-16.1068726,15.2766228
			c-9.132782,0-16.1068726-6.6420097-16.1068726-15.2766228s6.9740906-15.276619,16.1068726-15.276619
			C349.7193909,18.2531204,356.693512,24.8951321,356.693512,33.5297394z M330.45755,33.5297394
			c0,5.64571,4.6494141,10.1290665,10.295105,10.1290665c5.4796753,0,10.1290894-4.4833565,10.1290894-10.1290665
			s-4.4833679-10.1290627-10.1290894-10.1290627C335.1069641,23.4006786,330.45755,27.7179832,330.45755,33.5297394z"/>
		<path fill="#2586EA" d="M379.8135681,48.4742622l-5.147583-8.966713c-0.3320923,0-0.6641846,0-0.9963074,0h-6.808075v8.800663
			h-5.8117371V18.4191742h12.6198425c7.8043518,0,12.2876892,3.8191547,12.2876892,10.2951145
			c0,4.8154545-2.1586609,8.1364613-5.9778137,9.7969608l6.6420288,9.9630127H379.8135681z M366.6955872,34.5260429h6.8080444
			c4.3173218,0,6.6420288-1.8265533,6.6420288-5.6457062c0-3.6531048-2.4907532-5.4796581-6.6420288-5.4796581h-6.8080444
			V34.5260429z"/>
		<path fill="#F9630E" d="M163.3296509,65.8248825v3.9852066h-12.7858582v5.8117599h11.4574585v3.9852066h-11.4574585v5.9778061
			h13.2840118v3.9852066h-17.7673798V65.8248825H163.3296509z"/>
		<path fill="#F9630E" d="M193.7912292,65.8248825l5.47966,7.8043594l5.4796753-7.8043594h5.3135986L202.09375,77.2823486
			l8.6345978,12.4537659h-5.4796448l-5.9778137-8.4685593l-5.9777985,8.4685593h-5.3135986l8.4685516-12.2877197
			l-7.9704132-11.6235123H193.7912292z"/>
		<path fill="#F9630E" d="M253.2285767,73.9613495c0,5.4796524-3.4870605,8.634613-9.2988129,8.634613h-5.1475677v6.9741058
			h-4.4833221V65.8248825h9.6309052C249.7415466,65.8248825,253.2285767,68.8137817,253.2285767,73.9613495z
			 M248.9112854,74.1273956c0-2.9889069-1.9925995-4.3173065-5.3135986-4.3173065h-4.9815063v8.8006592h4.9815063
			C247.0847321,78.6107483,248.9112854,77.1162949,248.9112854,74.1273956z"/>
		<path fill="#F9630E" d="M293.9022827,84.5885544h-11.6235352l-2.1586609,4.9815063h-4.6494141l10.4611816-23.9112244h4.6494141
			l10.295105,23.911232h-4.9815063L293.9022827,84.5885544z M292.2417603,80.7694016l-4.1512451-9.9630127l-4.1512451,9.9630127
			H292.2417603z"/>
		<path fill="#F9630E" d="M342.1312256,65.8248825v3.9852066h-7.3062134v19.7599792h-4.4833374V69.8100891h-7.3062439v-3.9852066
			H342.1312256z"/>
		<path fill="#F9630E" d="M377.4074707,69.8100891c-2.1586609,0-3.4870605,0.8302536-3.4870605,2.324707
			c0,4.8154602,12.7858582,2.1586533,12.619812,10.7932663c0,4.4833527-3.8191528,7.1401596-9.1327515,7.1401596
			c-3.8191833,0-7.4722595-1.4944611-9.9630127-3.8191605l1.8265381-3.8191528
			c2.4907532,2.1586533,5.6457214,3.4870529,8.1364746,3.4870529s3.985199-0.9962997,3.985199-2.6567993
			c0-4.9815063-12.7858887-2.1586533-12.7858887-10.6272202c0-4.1512527,3.4870911-6.8080521,8.8006897-6.8080521
			c3.1549377,0,6.309906,0.9962997,8.6345825,2.4907532l-1.8265381,3.9852066
			C381.8908081,70.4742889,379.2340088,69.8100891,377.4074707,69.8100891z"/>
	</g>
</g>
</svg>
