<svg xmlns="http://www.w3.org/2000/svg" xmlns:xlink="http://www.w3.org/1999/xlink" width="16" height="16" viewBox="0 0 16 16">
    <defs>
        <path id="a" d="M13.111 1.372V3.54H3.028V1.372h3.003V0h4.078v1.372h3.002zm-6-.288v.288h1.917v-.288H7.111zm5.04 6.656a4.674 4.674 0 0 0-3.57 7.357H4.468L3.784 4.623h8.572l-.204 3.117zm.24 1.078a3.59 3.59 0 0 1 3.58 3.59A3.59 3.59 0 0 1 12.392 16a3.59 3.59 0 0 1-3.58-3.591 3.59 3.59 0 0 1 3.58-3.591zm1.951 4.781l-1.187-1.19 1.187-1.19-.764-.767-1.187 1.19-1.187-1.19-.764.766 1.187 1.19L10.44 13.6l.764.767 1.187-1.191 1.187 1.19.764-.766z"/>
    </defs>
    <g fill="none" fill-rule="evenodd">
        <mask id="b" fill="#fff">
            <use xlink:href="#a"/>
        </mask>
        <use fill="#7E7D7F" fill-rule="nonzero" xlink:href="#a"/>
        <g fill="#404040" mask="url(#b)">
            <path d="M0 0h16v16H0z"/>
        </g>
    </g>
</svg>
